<?xml version="1.0" encoding="utf-8"?>
<!DOCTYPE svg PUBLIC "-//W3C//DTD SVG 1.0//EN" "http://www.w3.org/TR/2001/REC-SVG-20010904/DTD/svg10.dtd">
<svg version="1.0" xmlns="http://www.w3.org/2000/svg" width="1376px" height="768px" viewBox="0 0 1376 768" preserveAspectRatio="xMidYMid meet">
 <g fill="#fefefe">
  <path d="M0 384 l0 -384 688 0 688 0 0 384 0 384 -688 0 -688 0 0 -384z m412 327 c4.1 -1.2 12 -4.3 17.5 -6.9 35.5 -17 68.6 -60.3 92.8 -121.6 5 -12.8 16.2 -46.4 20.3 -60.9 l1.6 -5.9 22.7 0.6 c45.3 1.2 83.5 7.4 149.2 24.2 70.8 18.2 88.3 22.5 100.1 24.9 37.3 7.5 66.7 9.4 91.8 5.7 17.8 -2.5 35.3 -7.3 52.5 -14.1 17.5 -6.9 24 -10.6 51.5 -28.8 28.6 -19 37.3 -27 43.9 -40.3 5.5 -11.3 6.7 -17.8 5.1 -29.6 l-1.2 -9.1 3 -4.4 c5.9 -8.6 21.7 -35.7 31 -53.3 10.9 -20.6 17.1 -33.3 28.7 -59.5 l8.3 -18.5 3.9 -0.3 4 -0.3 0.5 10.8 c0.7 13 3.2 20.7 9 26.9 8.8 9.5 18.1 11 30.5 4.9 12.7 -6.3 22.1 -17.4 36.3 -43.2 l6.2 -11.3 4.6 0 4.5 0 -0.6 7.8 c-0.3 4.2 -2 18.9 -3.7 32.7 l-3.2 24.9 -19.1 19.6 c-40.2 40.8 -59.7 66.3 -74.3 96.5 -12.2 25.4 -17 49.9 -12.9 65.8 3.4 13 10.5 22 20.1 25.7 6.9 2.5 11.9 2.5 19.1 0 35.2 -12.3 61.5 -69.7 75.7 -165 1.9 -12.9 4.3 -29.5 5.3 -36.9 l1.7 -13.5 12.1 -12.1 c15.5 -15.6 27.6 -30 37.6 -44.8 9.7 -14.5 13.4 -21.6 12 -23 -1.9 -1.9 -3.9 0.3 -10.9 12 -8.6 14.5 -19 28.3 -31.7 41.9 -8.8 9.4 -10 10.4 -13.2 10.4 l-3.6 0 0.6 -9.2 c0.7 -11.8 6.1 -60.9 8.7 -79.3 2.5 -17.7 2.5 -18.1 -0.5 -21 -2.1 -2.1 -2.8 -2.3 -4.8 -1.4 -3.3 1.5 -3.7 2.4 -10.5 23.4 -11.9 36.3 -29.1 69.2 -44.5 84.8 -6.9 7 -10.7 8.7 -19.7 8.7 -6.5 0 -7.4 -0.3 -10 -2.8 -8 -8.1 -5.9 -38.5 4.3 -62.1 6.9 -15.9 19.3 -30.8 27.5 -33.1 2 -0.5 7.2 -1 11.5 -1 7.3 0 8.1 0.2 10.5 2.7 1.5 1.6 3.5 3.9 4.4 5.3 1.5 2.3 1.7 2.4 3.4 0.8 1.4 -1.4 1.5 -2.1 0.5 -4.6 -2.9 -7 -12 -13.1 -19.7 -13.2 -6.8 0 -15.6 2 -19.3 4.6 -2 1.3 -4 2.4 -4.4 2.4 -0.5 0 -3.8 2.2 -7.3 5 -7.7 6 -12.4 6.9 -12.4 2.2 0 -1.5 2.9 -11.5 6.4 -22.2 22.1 -66.7 34.4 -127.8 28.3 -139.6 -3 -5.9 -5.9 -5.2 -13.7 3.3 -11.8 12.7 -37.3 54.9 -57 94.3 -7.6 15.1 -23 48.6 -30.5 66.3 -3.6 8.4 -3.8 8.7 -7.1 8.7 -2.5 0 -3.8 -0.7 -5.5 -3.1 -1.2 -1.7 -4.2 -4.4 -6.7 -6 -5.8 -3.7 -11 -3.8 -18.7 -0.4 -4.3 2 -7.2 2.5 -11.8 2.4 -8.9 -0.3 -13.4 1.3 -20.8 7.5 -11.1 9.1 -17.4 19.2 -23.9 38.6 -9.4 27.9 -26.7 56.1 -44.8 73.1 -6 5.7 -9.2 7.9 -13.2 9.2 -14 4.5 -25.4 -0.7 -29.3 -13.4 -3.8 -12.2 -4.5 -38.5 -1.6 -64.3 l0.9 -8.8 10.4 -11.2 c25.6 -27.4 44.7 -55.3 61.2 -89.1 21.5 -44.1 26.3 -72.2 14.8 -87.2 -3.6 -4.8 -9.7 -7.7 -14.6 -6.9 -10 1.6 -22.6 12 -32.3 26.6 -21.6 32.5 -44.3 99.6 -52.4 155.4 -1.1 7.6 -2.5 14.4 -3.1 15.2 -0.7 0.7 -2.8 1.8 -4.8 2.5 -2 0.6 -5.5 2.1 -7.7 3.4 -2.2 1.2 -7.4 3.5 -11.5 5 -4.1 1.5 -8.1 3.2 -8.7 3.8 -0.7 0.5 -4.1 1.2 -7.6 1.4 l-6.4 0.5 -2.7 -7.8 c-5.6 -15.8 -17.6 -29.6 -32.7 -37.4 -12.4 -6.4 -19.1 -8.3 -37.1 -10.5 -4.6 -0.6 -4.8 -0.7 -4.8 -4 0 -3 1 -4.1 10.9 -12.4 25.2 -21 41.5 -44 46.7 -65.6 4.6 -19.8 -2.4 -37.5 -18.1 -45.5 -6.6 -3.4 -7.1 -3.5 -17.4 -3.3 -9.1 0.1 -11.8 0.5 -19 3.2 -9.6 3.5 -19.1 8.5 -27.6 14.6 -8.8 6.2 -24.3 20.4 -30 27.4 -4.3 5.2 -5.5 6.1 -8.2 6.1 l-3.3 0 0 -8.2 c0 -18.7 -3.2 -34.1 -8 -39 -2.5 -2.4 -3.2 -2.7 -5.2 -1.7 -3.9 1.7 -5 4.3 -3.8 9.1 1.8 7.2 2.4 35.4 1.1 53 -1.2 15.5 -1.4 16.5 -4.3 21.3 -27.7 44.6 -45 79.4 -57.3 115.5 -17.2 50.4 -17.9 80.5 -2.1 90.1 15 9.2 32.8 -14.4 47.5 -63.2 10.8 -35.7 22.9 -96.6 28.6 -143.8 0.9 -7.4 1.9 -13.9 2.2 -14.5 2.2 -3.7 19 -23.3 25.5 -29.7 14.7 -14.5 32.6 -26 45.4 -29.3 7.2 -1.8 20.1 -2.1 25.9 -0.5 5.5 1.5 11.9 8.3 13.3 14.2 1.5 5.9 1.5 20.4 0.1 26.5 -7.7 32 -53 74.9 -94.3 89.3 -9.8 3.4 -12.1 7.6 -6.1 11.5 2.5 1.6 2.9 1.5 14.3 -2.6 22.2 -8 23.9 -8.3 42.2 -8.4 15.2 0 17.1 0.2 24.5 2.7 9.2 3 18.3 8.2 23.8 13.5 9 8.7 15.7 22.8 15.7 33.2 l0 4.7 -4.7 1.6 c-2.7 0.8 -9.5 3.4 -15.3 5.7 -5.8 2.3 -12.1 4.8 -14.1 5.6 -16.6 6.1 -46.9 21 -65.2 32.1 -49.1 29.7 -78 64.5 -72.8 87.8 4.3 19.3 25.9 29.3 51.7 23.9 18.5 -3.8 37.7 -12.3 57 -25.3 47.4 -31.8 76.8 -76.3 79.3 -120.4 l0.6 -10.8 13.5 -5.5 c7.4 -3.1 14.4 -5.8 15.5 -6.1 1.1 -0.3 2.9 -1.2 4 -2 1.1 -0.7 3.8 -1.3 6.1 -1.3 l4.2 0 0.5 22.8 c0.3 17.4 0.9 24.2 2.2 29.2 8.1 29.7 27.7 39.8 50 25.6 10.9 -7.1 25.3 -23.5 36.7 -42.3 4.9 -8 5.2 -8.3 8.8 -8.3 3.5 0 3.8 0.3 4.4 3.4 1.2 6.1 7.5 17.3 11.9 21.2 2.3 2 6.7 4.8 9.7 6.3 5.1 2.4 6.4 2.6 17.3 2.4 l11.7 -0.3 0 2.9 c0 1.5 -2.5 11.1 -5.6 21.2 -3 10.1 -6.5 22.9 -7.8 28.4 -2.4 10.8 -2.4 10.7 -12.1 15.3 -4.8 2.3 -11.7 9 -15.7 15.2 -5.6 8.8 -7 15.5 -7.7 38 l-0.7 20.5 -3.4 6.3 c-3.2 6 -9.2 12.1 -16.3 16.6 -4.9 3 -19.9 10.6 -21.1 10.6 -0.6 0 -2.2 0.6 -3.6 1.3 -2.4 1.2 -7.9 2.9 -20.9 6.2 -12.9 3.4 -25.2 4.4 -50.8 4.5 -41.3 0 -61.3 -3.4 -148.3 -25 -28.3 -7.1 -58 -14.2 -66 -15.9 -39.7 -8.2 -79.1 -13.1 -105.7 -13.1 l-12.3 0 0 -3.5 c0 -1.9 1.6 -10.3 3.6 -18.7 9.6 -41.1 26.3 -134.4 26.7 -149.7 0.2 -5.8 0 -6.5 -2.5 -8.4 -2.5 -1.9 -2.9 -1.9 -5.1 -0.4 -1.9 1.2 -3.6 5.1 -7.5 16.5 -9.4 27.6 -21.6 53 -35.8 74.4 -12.6 19 -21.2 25.8 -32.5 25.8 -4.7 0 -6.3 -0.5 -8.8 -2.5 -4.4 -3.8 -5.6 -8.3 -5.5 -22 0.1 -15.6 3.1 -27.3 11.5 -44.3 5.2 -10.7 7.1 -13.4 13.7 -20.1 8.9 -9 13.5 -11.1 24.2 -11.1 7.6 0 9.8 1.2 13.7 7.3 l2.6 4.1 1.8 -2.2 c2.4 -3.1 1 -7 -4.3 -11.8 -7.7 -6.9 -16.2 -8.3 -27.3 -4.4 -20.2 7 -33 22.8 -48.5 59.9 -13.8 33 -31.4 62.6 -45.4 76.3 -7.4 7.2 -14.2 10.9 -21.5 11.5 -15 1.4 -20 -5.4 -22.3 -30.4 -2.6 -28.6 3.1 -71.1 17.4 -130 l6.2 -25.2 11 -6.2 c44.6 -24.6 80.9 -64.6 91.6 -100.7 8.9 -30.4 -4.9 -52.6 -28.6 -45.7 -18 5.2 -34.7 24.5 -53.3 61.5 -11.8 23.6 -26.1 59.8 -32.1 81.5 -1.2 4.4 -2.6 8.4 -3 8.9 -4.2 4.4 -92.2 32.6 -101.8 32.6 -3.1 0 -3.2 -0.2 -3.2 -3.9 0 -4.1 15.5 -69.7 23.5 -99.3 2.5 -9.1 8.1 -27.5 12.4 -40.8 l7.9 -24.2 -2.3 -2.4 c-1.3 -1.3 -2.9 -2.4 -3.6 -2.4 -0.6 0 -4.4 3 -8.3 6.8 -11.8 11.2 -31.6 20.1 -65.3 29.2 -10.3 2.8 -23.7 6.5 -29.7 8.1 -14.5 4 -34.1 12.1 -43 17.9 -18.5 12.1 -31.2 29.2 -34.6 46.7 -2.1 10.5 1.9 22.3 10.5 30.9 4.8 4.8 8.7 6.3 11 4.4 2.5 -2.1 1.7 -3.6 -3.3 -7.3 -7.4 -5.3 -9.6 -10.6 -9.6 -23.7 -0.1 -10.1 0 -10.8 3.6 -18.3 6.4 -13.3 19.7 -25.2 37 -33.1 9.1 -4.1 21.9 -8.3 41.3 -13.6 20.5 -5.6 44 -13.4 55.9 -18.6 6.1 -2.7 11.3 -4.4 13.7 -4.4 3.7 0 3.9 0.2 3.9 3.2 0 1.7 -1.8 8.6 -3.9 15.2 -4.7 14.5 -10.1 34.7 -21.5 80.1 -8.5 34.2 -14 54.7 -15.1 56.5 -0.3 0.6 -1.3 1 -2.1 1 -2.5 0 -33.3 10.5 -45.4 15.5 -37.4 15.4 -66 33.6 -89.5 57 -23.6 23.5 -39.4 53.6 -39.5 75 -0.1 27.9 23.8 48.3 51.8 44.4 32.8 -4.6 66.1 -31.5 91.6 -74.2 17 -28.4 33.3 -66.8 44 -103.7 l3.4 -11.5 20.8 -5.8 c11.5 -3.1 32.8 -9.8 47.4 -14.8 14.6 -5 28.9 -9.3 31.8 -9.6 l5.2 -0.5 0 3.5 c0 1.9 -1.3 8.5 -3 14.8 -5.7 22 -12.2 56.4 -15 78.8 -5 41.3 0.6 70.2 15.8 81.8 19.7 14.9 46.9 -3.2 71.2 -47.4 l6.2 -11.3 4.4 0 c3.5 0 4.4 0.4 4.4 1.8 0 3.6 4.9 12 9.1 15.5 18.3 15.7 40.9 1.1 64.6 -41.8 l5 -9 4.7 -0.3 c4.5 -0.3 4.6 -0.3 4.6 2.7 0 7.5 -19.3 97.9 -22.5 105.8 -1.3 3 -1.5 3.1 -9.2 3.8 -28.4 2.3 -59.3 9.7 -84.3 20.2 -51 21.4 -85.1 53.9 -97.9 93.1 -9.9 30.2 -4.8 59 13.6 76.8 5.9 5.7 17.8 11.8 26.9 13.8 8.6 1.9 20.1 1.4 30.4 -1.4z"/>
  <path d="M374.3 702.5 c-19 -5.9 -30.3 -24.9 -30.3 -51 0 -23.9 7.9 -45.8 23.4 -65.1 6.7 -8.3 23.4 -24 29.7 -27.8 1.9 -1.1 6.4 -4 10 -6.4 13 -8.6 38 -19.6 57.2 -25.1 18.6 -5.5 46.3 -10.1 59.8 -10.1 3.6 0 3.9 0.2 3.9 2.9 0 3.7 -9.4 34.7 -15.4 50.9 -20.4 54.8 -45.8 93.9 -75.5 116.2 -8.4 6.4 -22.1 13.5 -29.7 15.5 -7.2 1.9 -27.1 1.9 -33.1 0z"/>
  <path d="M1135.5 565.5 c-8.8 -3.1 -12.5 -12.1 -12.5 -30.7 0 -42 23.2 -82.9 80.9 -143 7.7 -8.1 8.7 -8.8 12.2 -8.8 l3.9 0 0 5.5 c0 11.7 -6.5 50.3 -13 77 -10.7 44.4 -26.8 79.6 -42.7 93.5 -8.3 7.4 -19.4 9.8 -28.8 6.5z"/>
  <path d="M114.8 518.3 c-22.1 -7.4 -25.8 -40 -8.2 -72.2 5.8 -10.6 12.1 -18.9 22.9 -30 11.2 -11.5 21.1 -19.6 36.2 -29.5 26.3 -17.2 74.1 -37.6 88.1 -37.6 5 0 5.2 0.1 5.2 2.8 0 3.7 -9 30.6 -16.5 49.2 -15.3 38.3 -32.4 67.2 -52 87.8 -14.7 15.6 -30.6 26 -45 29.7 -7.8 2 -24.5 1.9 -30.7 -0.2z"/>
  <path d="M682.3 475.9 c-5.7 -1.4 -10.8 -6.3 -12.3 -11.9 -2.5 -9 0.6 -23.6 6.8 -32.8 16 -23.8 46.5 -47 89.7 -68.1 17.4 -8.6 34.6 -16.1 36.7 -16.1 0.8 0 1.8 -0.4 2.4 -0.9 2.2 -2.2 19.9 -8.1 24.1 -8.1 l4.6 0 -0.6 8.8 c-2.9 42.7 -44.2 94.6 -95.2 119.7 -14.2 6.9 -24.7 9.6 -39.5 10.1 -6.9 0.1 -14.4 -0.1 -16.7 -0.7z"/>
  <path d="M1049.8 439.8 c-1.4 -1.1 -4.8 -2.6 -7.5 -3.3 -5.6 -1.4 -6.2 -3 -4.3 -12 l1.1 -5.5 4.2 0.1 c2.6 0 7.5 1.5 12.7 3.8 7.9 3.5 8.5 4.1 8.8 7 0.2 2.1 -0.6 4.7 -2.3 7.6 -2.3 4.1 -2.9 4.5 -6.3 4.4 -2.2 0 -4.8 -0.9 -6.4 -2.1z"/>
  <path d="M1054 418 c-12.8 -6 -12.7 -5.5 -7.1 -24.1 7.9 -26.4 8.4 -27.4 15.4 -34.4 7.6 -7.5 12.5 -14.7 17.8 -26 4.1 -8.7 5 -9.5 10.5 -9.5 4.3 0 17.6 -2.9 18.8 -4.1 0.6 -0.5 3.2 -0.9 5.8 -0.9 4.8 0 4.8 0 4.8 3.4 0 6.1 -19.5 47.7 -39.8 84.9 l-8.6 15.7 -3.5 -0.1 c-2.1 0 -8 -2.1 -14.1 -4.9z"/>
  <path d="M622.9 413.8 c-1.8 -3.4 -2.3 -17.9 -0.9 -29.6 3.8 -32.6 22.5 -84.6 45.3 -126.2 l6.3 -11.5 4.4 -0.3 4.3 -0.3 -0.6 7.3 c-0.8 10.1 -9.9 57.5 -15.2 79.3 -9.5 39.1 -21.6 71.7 -30 80.8 -2.1 2.2 -3.4 2.7 -7.5 2.7 -4 0 -5.1 -0.4 -6.1 -2.2z"/>
  <path d="M1023.5 364.6 c-3.8 -1.6 -8.2 -6.7 -10.6 -12.1 -4.5 -10.1 -4.9 -31.4 -0.9 -47.1 2.5 -10 9.7 -24.6 15 -30.7 3.8 -4.2 4.6 -4.7 8.5 -4.7 l4.2 0 -0.1 10.3 c-0.1 9.5 0.1 10.6 3.1 17 4.1 8.6 11.8 16.4 20 20.3 5.7 2.6 6.2 3.2 6.2 6.1 0.1 3.8 -4.3 20.4 -6.7 25.1 -2.2 4.6 -10.6 12 -16.7 14.8 -5.8 2.7 -16.9 3.2 -22 1z"/>
  <path d="M1090 312.8 c0 -1.7 0.8 -6.5 1.7 -10.5 l1.7 -7.3 4.3 0 c2.9 0 7.1 1.2 12.3 3.6 7.6 3.5 8 3.8 8 7 0 3 -0.5 3.5 -5.2 5.7 -7.1 3.3 -12.3 4.7 -18 4.7 -4.7 0 -4.8 -0.1 -4.8 -3.2z"/>
  <path d="M1063.6 311.9 c-10.8 -5.7 -16.6 -16.2 -16.6 -30 0 -8.8 1.5 -13.4 5.4 -17.4 2.2 -2.2 3.3 -2.5 9.9 -2.5 12.5 0 15.2 4.1 16.9 25.8 1 11.6 0.9 14 -0.7 19.7 l-1.7 6.5 -4.7 0 c-2.6 -0.1 -6.2 -1 -8.5 -2.1z"/>
  <path d="M1111 288.6 l-18.5 -8.3 -0.3 -4.5 c-0.2 -3.7 1.2 -7.8 8.7 -25.3 21.4 -50.2 46.1 -98.3 67.6 -131.6 10.7 -16.5 12 -17.9 16.6 -17.9 l3.9 0 0 6 c0 29.4 -20.2 105.5 -45.2 170.5 l-7.3 19 -3.5 0.2 c-2.6 0.2 -8.5 -2 -22 -8.1z"/>
  <path d="M409 280.3 c0 -2 2.9 -11.7 6.6 -21.7 21 -57.3 43 -95.9 58.9 -103.3 3.6 -1.6 6.8 -2.3 11.6 -2.3 5.8 0 6.9 0.3 9.3 2.6 3.4 3.5 4.6 8.1 4.6 18.5 0 32.9 -28 72.5 -72.5 102.4 -8.8 6 -11.9 7.5 -14.8 7.5 -3.6 0 -3.7 -0.1 -3.7 -3.7z"/>
  <path d="M914 277.5 c0 -14.9 19.2 -83.1 31.7 -112.4 14 -32.9 25.8 -48.8 37.2 -49.9 10.2 -0.9 12.7 4 11.8 22.8 -0.4 7.6 -1.4 14.8 -3.2 21.4 -8.8 33.5 -33.7 78.3 -63.1 113.7 -6.8 8.1 -7.8 8.9 -10.9 8.9 -3.5 0 -3.5 0 -3.5 -4.5z"/>
 </g>
 <g fill="#d75574">
  <path d="M378.6 715.4 c-9.1 -2 -21 -8.1 -26.9 -13.8 -12 -11.6 -17.6 -25.7 -18.5 -45.9 -0.7 -19.5 2.7 -35.7 11.4 -52.9 26.2 -52.1 96.1 -90.8 175.7 -97.3 7.7 -0.7 7.9 -0.8 9.2 -3.8 3 -7.3 23.2 -101.4 22 -102.5 -1.2 -1.3 -3.5 1.5 -7.9 9.4 -12.5 22.9 -25.9 39 -37 44.4 -11.9 5.9 -24.8 4.8 -33.5 -2.7 -4.2 -3.5 -9.1 -11.9 -9.1 -15.5 0 -4.4 -3.2 -0.9 -9 9.5 -13.5 24.7 -28.4 41.8 -41.9 48.5 -12.5 6.2 -26.3 5.7 -35.3 -1.1 -12.9 -9.8 -18.8 -31.6 -17.5 -64.2 1.1 -27.4 7.7 -67.6 16.7 -102.4 1.7 -6.3 2.8 -11.7 2.5 -12 -0.3 -0.3 -2 0.1 -3.8 0.8 -11.1 4.3 -56.5 19 -74.1 23.8 l-20.8 5.8 -3.4 11.5 c-13.7 47.5 -36 95.3 -57.7 124.2 -13.4 17.9 -31.5 34.5 -46.8 43 -9.2 5.2 -22.6 9.6 -32.9 10.9 -22.1 2.8 -40.4 -5.2 -50.3 -22.1 -7.7 -13.2 -7.7 -34.7 0 -53.9 17.2 -43.1 60.9 -80.9 123.3 -106.6 12.1 -5 42.9 -15.5 45.4 -15.5 0.8 0 1.8 -0.4 2.1 -1 1.1 -1.8 6.6 -22.4 16.5 -61.9 11.3 -45.2 16.6 -64.8 21 -77.5 1.6 -4.9 2.8 -9.1 2.5 -9.4 -0.2 -0.3 -5.7 1.8 -12.2 4.6 -13.8 5.8 -33.8 12.5 -54.8 18.2 -19.4 5.3 -32.2 9.5 -41.3 13.6 -17.3 7.9 -30.6 19.8 -36.9 33 -3.2 6.8 -3.7 8.6 -3.6 15.3 0 9.9 2.7 16 9.4 20.7 4.9 3.6 5.9 5.1 5.9 8.9 0 2.7 -4.3 6.5 -7.3 6.5 -3.7 0 -10.7 -4.1 -14.2 -8.4 -19.2 -23.5 -7.7 -59.5 26.1 -81.6 8.9 -5.8 28.5 -13.9 43 -17.9 6 -1.6 19.4 -5.3 29.7 -8.1 33.5 -9.1 53.5 -18 65.2 -29.1 8.1 -7.7 10.1 -8.5 14.8 -6.5 3.8 1.5 5.7 4.1 5.7 7.7 0 1.2 -3.6 13.2 -8.1 26.8 -4.4 13.5 -10.2 32.7 -12.8 42.6 -6.6 24.5 -23.4 94.5 -22.9 95 0.7 0.7 43.5 -11.7 61.8 -17.8 17.9 -6.1 35.7 -12.9 37 -14.3 0.4 -0.5 1.8 -4.5 3 -8.9 9.3 -33.4 32.2 -85.9 47.5 -109 17.3 -25.9 32.3 -36.2 51.4 -35.4 6.5 0.3 8.5 0.9 12 3.2 5.3 3.5 9.7 10.4 11.2 17.6 1.7 8.3 0.6 23.9 -2.5 33.6 -11.4 36.1 -47.2 75.1 -91.2 99.4 l-11 6.2 -6.2 25.2 c-16.9 69.4 -21.9 117.3 -14.7 141.5 6.2 20.7 26 15.8 46 -11.3 11.3 -15.2 24.6 -39.8 34.5 -63.6 12.8 -30.4 22.4 -44.7 36.4 -53.8 9.1 -5.9 16.5 -8.3 26.1 -8.4 9.1 0 13.2 1.4 19 6.4 8.7 7.7 8.7 19.9 0 19.9 -2.9 0 -3.9 -0.6 -5.9 -3.9 -4.7 -7.3 -9.5 -8.7 -19.2 -5.4 -3.7 1.2 -6.8 3.5 -12.6 9.4 -6.6 6.7 -8.5 9.4 -13.7 20.1 -7.6 15.5 -11.3 28.9 -11.4 41.3 -0.1 10.6 1.3 15.5 5.4 19 3.9 3.2 7.2 3.2 13.7 -0.1 16 -8 41.9 -51.9 57.3 -97.3 3.1 -9.1 5.7 -15.3 7 -16.3 4.8 -4 14 -1 15.3 5 0.6 2.4 -2.2 22.3 -9.3 66.4 -2.8 17.3 -14.1 73.9 -18.5 92.6 -2 8.4 -3.6 15.5 -3.6 15.7 0 0.3 1.1 0.5 2.5 0.5 2.4 0 2.5 0.3 2.5 5.5 l0 5.5 3.5 0 c2.8 0 3.5 0.4 3.5 2 0 1.8 -0.7 2 -7.9 2 l-8 0 -1.6 5.8 c-4 14.3 -15.2 48 -20.2 60.7 -11 27.9 -24 52.3 -38.7 73 -8.7 12.3 -25.3 29.6 -36.1 37.8 -9.2 6.9 -24.6 14.6 -35.5 17.7 -10.1 2.8 -27.1 3.5 -36.4 1.4z m25.8 -15.9 c7.6 -2 21.3 -9.1 29.7 -15.5 29.7 -22.3 55.1 -61.4 75.5 -116.2 4.5 -12.2 15.5 -47 14.9 -47.6 -0.7 -0.7 -23.2 2.1 -34.5 4.4 -29.2 5.8 -60.7 17.9 -79.9 30.6 -3.6 2.4 -8.1 5.3 -10 6.4 -6.3 3.8 -23 19.5 -29.7 27.8 -11.3 14 -18.6 29.8 -21.8 46.6 -5.8 30.1 6.2 56.5 28.7 63.5 5.8 1.9 20.1 1.8 27.1 0z m-261.9 -184 c14.4 -3.7 30.3 -14.1 45 -29.7 24.3 -25.6 45.3 -64.8 63 -117.8 6.2 -18.3 6.5 -17.8 -8.3 -13 -33.2 10.8 -67.3 28.5 -91.7 47.5 -9.8 7.7 -26.5 24.8 -32.7 33.5 -13.6 19.2 -20.8 40.3 -18.8 55.1 1.6 11.3 9 20.9 18.8 24.2 6.1 2 17.2 2.1 24.7 0.2z m282 -242 c29.2 -19.6 50.9 -42.7 63 -67 10.6 -21.4 12.5 -40.2 4.9 -47.9 -3.4 -3.3 -8.1 -3.4 -14.9 -0.3 -15.9 7.4 -37.9 46 -58.9 103.3 -3.6 9.9 -6.6 18.3 -6.6 18.7 0 1.4 1.6 0.5 12.5 -6.8z"/>
 </g>
 <g fill="#b6507d">
  <path d="M574 519.4 c-9.1 -0.6 -18.2 -1.3 -20.4 -1.3 -3.4 -0.1 -3.7 -0.3 -2.6 -1.6 1.6 -2 2 -8.3 0.7 -10.9 -0.9 -1.9 -0.4 -1.9 19 -1.3 12.4 0.3 20.9 1 22.6 1.8 2.9 1.3 4.7 5.8 4.7 11.7 0 3.8 2 3.6 -24 1.6z"/>
 </g>
 <g fill="#a14c81">
  <path d="M628.5 525.4 c-7.7 -1.3 -20 -3 -27.3 -3.8 -12.5 -1.3 -18.2 -2.6 -11.6 -2.6 4.6 0 5.9 -1.3 4.3 -4.1 -0.7 -1.3 -1.2 -2.5 -1.1 -2.6 0.7 -1.1 -0.2 -2.2 -2.7 -3.3 -1.6 -0.6 -3.2 -1.9 -3.5 -2.7 -0.5 -1.3 0.4 -1.4 6.6 -0.8 17.5 1.5 50.8 6.3 51.9 7.4 0.4 0.3 1 3.9 1.4 7.9 0.8 8.6 2.6 8.1 -18 4.6z"/>
 </g>
 <g fill="#8e4786">
  <path d="M667 532.4 c-5.8 -1.2 -15 -3.1 -20.5 -4 -10.6 -1.8 -15.7 -4 -7.3 -3.1 5 0.5 5.8 -0.2 3.4 -2.5 -0.8 -0.8 -1.1 -2.1 -0.7 -2.9 1.4 -2.7 0.6 -4.4 -2.6 -5.8 -4 -1.8 -4.3 -3.5 -0.6 -2.7 40 7.5 41.3 7.8 41.3 9.7 0 1.1 -0.4 1.9 -1 1.9 -1.6 0 -1.2 3 0.5 3.6 1 0.4 1.5 2 1.5 4.5 0 4.6 0.5 4.6 -14 1.3z"/>
 </g>
 <g fill="#83438a">
  <path d="M709.3 542.6 c-30.7 -7.7 -32.2 -8.2 -31.7 -10.3 0.4 -1.5 0 -2.3 -1.3 -2.7 -1.5 -0.5 -1.8 -1.3 -1.5 -3.5 0.2 -1.6 -0.1 -3.8 -0.8 -5 -1.1 -2.1 -1 -2.2 3.7 -1.7 2.6 0.3 15.6 3.2 28.8 6.4 36.1 9 32.7 7.7 32.4 11.7 -0.2 2.2 0.3 4.1 1.5 5.3 1 1.2 1.6 3.2 1.4 4.9 l-0.3 2.9 -32.2 -8z"/>
 </g>
 <g fill="#75388b">
  <path d="M1133.3 576.9 c-13.6 -5.2 -21.3 -20.3 -21.3 -41.5 0 -17.7 4.6 -35.6 14.4 -55.9 14.6 -30.2 34.1 -55.7 74.3 -96.5 l19.1 -19.6 3.1 -24.9 c1.7 -13.8 3.4 -27.1 3.7 -29.7 1 -8.1 -1.7 -6 -8.6 6.5 -14.3 26 -23.6 36.9 -36.6 43.3 -6.9 3.5 -8.5 3.9 -15.3 3.9 -9.2 -0.1 -15 -2.5 -20.9 -8.9 -5.8 -6.2 -8.3 -13.9 -9 -26.9 -0.3 -6.4 -0.9 -10.6 -1.5 -10.4 -0.5 0.1 -4.7 8.6 -9.2 18.7 -11.7 26.3 -17.8 39 -28.7 59.5 -8.9 16.7 -24.6 43.7 -30.7 53 -2.3 3.4 -2.6 4.6 -2 8 2.3 11.9 0.5 23.7 -5.2 35.4 -6.6 13.3 -15.3 21.3 -43.9 40.3 -27.5 18.2 -34 21.9 -51.5 28.8 -42.9 17.1 -82.8 20.2 -137 10.9 -23.7 -4.1 -87.9 -20 -90.4 -22.5 -1.2 -1.1 -1.1 -1.2 1 -0.7 2 0.5 1.6 -0.2 -2.4 -4.1 -4.5 -4.5 -5.2 -6.6 -2.2 -6.6 0.7 0 1.5 0.5 1.7 1.2 0.3 0.7 0.7 0.6 1.1 -0.5 0.5 -1.3 -0.3 -2.1 -3.1 -3.3 -8 -3.5 -0.4 -2.2 26.4 4.5 60.2 14.9 87 19.1 121.7 19.1 22.5 -0.1 35.4 -1.3 47.8 -4.5 13 -3.3 18.5 -5 20.9 -6.2 1.4 -0.7 3 -1.3 3.6 -1.3 1.2 0 16.2 -7.6 21.1 -10.6 7.1 -4.5 13.1 -10.6 16.3 -16.6 l3.4 -6.3 0.7 -20.5 c0.7 -22.5 2.1 -29.2 7.7 -38 4 -6.2 10.9 -12.9 15.7 -15.2 9.6 -4.5 9.7 -4.7 11.7 -13.9 1.4 -6.3 10.3 -37.6 13.2 -46.4 0.2 -0.6 -4 -1 -11.3 -1 -10.5 0 -12.1 -0.3 -17.1 -2.6 -3 -1.5 -7.4 -4.3 -9.7 -6.3 -4.4 -3.9 -10.7 -15.1 -11.9 -21.2 -0.3 -1.9 -1 -3.4 -1.4 -3.4 -0.4 0 -2.6 3 -4.8 6.8 -13.1 22.1 -29.7 40.2 -42.5 46.5 -18.9 9.2 -38.4 2.7 -46.7 -15.6 -5.4 -12 -6.2 -17.4 -6.7 -41.9 -0.5 -23.8 -0.6 -24.3 -4.8 -21.5 -1.1 0.8 -2.9 1.7 -4 2 -1.1 0.3 -8.1 3 -15.5 6.1 l-13.5 5.5 -0.6 10.8 c-2.5 44.1 -31.9 88.6 -79.3 120.4 -39.4 26.5 -79.3 34.3 -101.8 20 -14.8 -9.4 -18 -30 -7.8 -50 9.8 -19.5 34.8 -42.6 67.7 -62.4 18.3 -11.1 48.6 -26 65.2 -32.1 2 -0.8 8.3 -3.3 14.1 -5.6 5.8 -2.3 12.6 -4.9 15.3 -5.7 5.5 -1.9 5.6 -2.3 2.7 -11.6 -5.1 -16.5 -18.5 -29.2 -37.5 -35.4 -6.9 -2.3 -9.8 -2.6 -21 -2.7 -14.6 0 -18.2 0.7 -38 7.9 -6.9 2.5 -14.2 4.5 -16.4 4.5 -5.5 0 -9.2 -3.3 -9.4 -8.2 -0.1 -5.5 2.2 -8 9.9 -10.7 22.8 -8 46.4 -23.8 66.2 -44.5 14.8 -15.5 24.9 -31.6 28.1 -44.8 2.8 -11.8 0.8 -23 -5.3 -29.3 -13.8 -14.4 -44.4 -4.2 -73.4 24.4 -6.5 6.4 -23.3 26 -25.5 29.7 -0.3 0.6 -1.3 7.1 -2.2 14.5 -4 33.1 -12.6 80.7 -20.1 111.9 -17.4 72.2 -35.6 102.8 -57.5 97 -6.4 -1.7 -12.1 -8 -14.2 -15.6 -3.5 -12.3 -1.8 -35.1 4.3 -57.9 11.4 -42.9 31 -85.4 64.7 -140 2.9 -4.6 3.2 -6.1 4.2 -19 1.4 -17.4 1.4 -33.9 0.1 -42.5 -2.2 -14 -2.3 -16.1 -1 -18.4 2.8 -5.3 10.6 -6.1 15 -1.7 4.8 4.8 8 20.2 8 39 l0 8.5 3.6 -4.5 c5.5 -6.6 20 -20.3 27.9 -26.4 9.5 -7.3 21 -13.8 31.4 -17.6 8 -2.9 9.6 -3.1 22.2 -3.3 l13.6 -0.1 6.8 3.5 c13.3 6.8 19.5 18.4 19.5 36.4 0 5 -0.7 11.8 -1.4 15.1 -5.2 21.6 -21.5 44.6 -46.7 65.7 -6.1 5 -10.8 9.2 -10.6 9.5 0.2 0.2 4.2 0.8 8.8 1.3 12.4 1.4 19.2 3.4 30.4 8.9 17.1 8.4 29.1 21.6 35.1 38.4 l2.7 7.9 3.6 -0.7 c2 -0.4 4.1 -1 4.6 -1.4 0.6 -0.5 4.4 -2.1 8.5 -3.6 4.1 -1.5 9.3 -3.8 11.5 -5 2.2 -1.3 5.7 -2.8 7.7 -3.4 2 -0.7 4.1 -1.8 4.8 -2.5 0.6 -0.8 2 -7.6 3.1 -15.2 8.1 -55.8 30.8 -122.9 52.4 -155.4 6.5 -9.8 16.9 -20.2 23.6 -23.6 7.5 -3.8 17 -4.4 22.6 -1.5 16 8.1 17.3 34.9 3.7 72.1 -5.1 13.9 -18.9 41.5 -28.3 57 -13.6 22.2 -26.7 39.4 -44.7 58.7 l-10.4 11.1 -0.9 9.4 c-2.7 25.9 -2.2 45.7 1.6 57.7 2.2 6.9 7.4 12.5 13.1 14.1 7.4 1.9 13.7 -0.8 23.4 -9.9 18.3 -17.1 34.8 -44.1 44.9 -73.3 7 -20.3 13.7 -30.7 25.3 -39.7 6.4 -5 14.8 -7.6 21.4 -6.7 3.2 0.4 5.5 0 9.8 -1.9 4.3 -1.9 7.4 -2.5 12.8 -2.5 8.2 0 12 1.7 17.7 8.1 l3.6 4.1 3.8 -8.9 c14.2 -33.3 32.3 -71 46 -95.8 25.1 -45.4 43 -70.6 51.1 -72.1 9.3 -1.7 11.8 2.3 11.7 18.6 -0.1 25.3 -11.5 75.4 -29.3 129 -3.4 10.2 -6.4 19.1 -6.7 19.9 -0.3 0.7 2.4 -1 6 -3.8 3.5 -2.8 6.9 -5.1 7.4 -5.1 0.4 0 2.4 -1.1 4.4 -2.4 6.9 -4.7 26 -6.2 33.4 -2.6 5.2 2.5 6.7 3.7 9.9 8.4 4.9 7.2 2.9 15.6 -3.7 15.6 -2 0 -3.4 -1.1 -5.7 -4.5 -3.7 -5.4 -5.6 -6.5 -11.2 -6.5 -7.1 0 -11.4 1.8 -17.2 7.1 -13.8 12.6 -25.1 38 -27.2 61.1 -1.8 19.7 6.3 29.2 19.4 23.1 15.5 -7.2 38.9 -47.6 53.4 -91.8 3.2 -9.9 6.3 -19 6.9 -20.1 2.5 -4.8 10.5 -5.9 14.4 -1.9 3.2 3.1 3.2 7.7 0.5 27 -2 13.8 -7.6 63.8 -8.6 76.5 l-0.5 6.5 9.6 -10 c11.9 -12.4 25.1 -29.6 33.3 -43.7 6.2 -10.6 8.2 -12.8 11.9 -12.8 5.9 0 7 5.6 2.9 13.8 -8.2 16.1 -27.8 41.3 -48.1 61.7 l-12.1 12.1 -1.7 13.5 c-1 7.4 -3.4 24 -5.3 36.9 -14.2 95.3 -40.5 152.7 -75.7 165 -7.5 2.6 -18.4 2.6 -25.4 -0.1z m19.3 -15.3 c6.4 -3 11.1 -7.1 16.9 -14.9 17.4 -23 31.6 -63.1 41.4 -116.4 3.8 -20.7 6.7 -43 5.7 -44 -1.4 -1.4 -30.1 29.6 -46.9 50.5 -28.6 35.7 -43.7 69.4 -43.7 98 0 15.4 4.2 24.8 12.5 27.7 5.6 2 8.3 1.8 14.1 -0.9z m-435.1 -91.1 c31 -9 67.5 -36.8 89.8 -68.3 12.3 -17.4 21.5 -39.1 23.3 -55.1 0.5 -5.1 0.4 -6.1 -0.9 -6.1 -1.9 0 -19.9 6.9 -21.1 8.1 -0.6 0.5 -1.6 0.9 -2.4 0.9 -3.6 0 -39.6 16.8 -57 26.6 -44.5 25.2 -71.7 51.8 -76.3 74.5 -2.1 10.5 3 19.6 12.4 21.8 6.9 1.7 22.1 0.5 32.2 -2.4z m341.9 -35.7 c1.4 -2.4 2.2 -4.6 1.8 -4.9 -1 -0.9 -17.1 -7.9 -18.2 -7.9 -0.9 0 -3.1 9 -2.4 10.1 0.2 0.3 2.1 0.9 4.2 1.3 2.1 0.3 5.4 1.7 7.3 3 1.9 1.3 3.7 2.5 4.1 2.5 0.4 0.1 1.8 -1.8 3.2 -4.1z m17.8 -30.5 c14.5 -26.6 39.8 -78.6 39.8 -81.9 0 -0.8 -3.6 -0.4 -4.6 0.5 -1.2 1.2 -14.5 4.1 -18.8 4.1 -5.5 0 -6.4 0.8 -10.5 9.5 -5.3 11.3 -10.2 18.5 -17.8 26 -5.7 5.7 -6.7 7.2 -9.4 15.2 -3.3 9.9 -9.1 29.1 -9.3 31.1 -0.1 1 19 10.9 21.5 11.1 0.3 0.1 4.4 -7 9.1 -15.6z m-443.7 6 c12 -13 27.7 -63 39.4 -125.3 6.5 -34.6 6.7 -36.4 5 -35.8 -3 1 -22.1 39.2 -32.4 64.8 -16.7 41.6 -25.6 85.7 -19.5 97 1.5 2.8 4.5 2.5 7.5 -0.7z m409 -49.7 c6.1 -2.8 14.5 -10.2 16.7 -14.8 1.6 -3.1 7.2 -22 6.6 -22.2 -5.8 -2.3 -13.5 -7.2 -17.6 -11.3 -8.9 -8.8 -14 -23.3 -12.3 -34.5 0.6 -3.6 0.5 -4.8 -0.5 -4.8 -2.1 0 -9.1 8.8 -13.2 16.8 -12.5 24.1 -13.2 53.4 -1.7 67.1 5.5 6.4 13.4 7.8 22 3.7z m58 -48.7 c2.2 -0.6 6.5 -2.3 9.5 -3.7 l5.5 -2.6 -8 -3.8 c-4.4 -2 -8.7 -3.8 -9.6 -3.8 -1.2 0 -1.9 1.5 -2.7 5.3 -0.6 2.8 -1.4 6.2 -1.8 7.5 -0.7 2.6 0.8 2.8 7.1 1.1z m-25.1 -6.8 c1.4 -4.9 1.5 -7.6 0.7 -16.8 -1.6 -17.5 -5 -23.3 -13.8 -23.3 -3.4 0 -5 0.6 -6.9 2.5 -10.7 10.7 -4.7 33 11.2 41.4 6.1 3.2 6.9 2.8 8.8 -3.8z m68 -37.6 c17.1 -45.5 29.5 -87.1 37 -123.9 3.7 -18 6.4 -38.1 5.3 -39.2 -1.2 -1.2 -3.9 2 -12.2 14.6 -15.6 23.8 -36.2 61.3 -52 95.1 -11.8 25 -26.6 60 -26.3 61.7 0.3 1.7 36.9 18.4 38 17.3 0.4 -0.3 5 -11.9 10.2 -25.6z m-218 2.6 c36.2 -43.5 63.9 -98.8 66.2 -132.1 0.7 -10.1 -0.6 -16.3 -4 -18.5 -3.4 -2.2 -6.7 -1.1 -12.6 4.2 -11.7 10.5 -24.3 35.6 -37.3 74.4 -10 29.5 -22.8 80.9 -20.2 80.9 0.2 0 3.8 -4 7.9 -8.9z"/>
 </g>
</svg>